<svg width="671" height="744" viewBox="0 0 671 744" fill="none" xmlns="http://www.w3.org/2000/svg">
<path d="M549 372.787C549 255.239 453.665 160 336 160C218.335 160 123 255.239 123 372.787C123 478.992 200.891 567.024 302.719 583V434.298H248.61V372.787H302.719V325.905C302.719 272.58 334.497 243.124 383.169 243.124C406.479 243.124 430.854 247.277 430.854 247.277V299.616H403.988C377.535 299.616 369.281 316.021 369.281 332.847V372.787H428.354L418.907 434.298H369.281V583C471.109 567.024 549 478.992 549 372.787Z" fill="#FDFFFF"/>
<path d="M663 517.63V226.37C662.987 213.601 659.618 201.06 653.231 190.005C646.844 178.95 637.664 169.77 626.611 163.385L371.889 17.7553C360.825 11.3645 348.275 8 335.5 8C322.725 8 310.175 11.3645 299.111 17.7553L44.3889 163.385C33.3362 169.77 24.1559 178.95 17.769 190.005C11.3821 201.06 8.01309 213.601 8 226.37V517.63C8.01309 530.399 11.3821 542.94 17.769 553.995C24.1559 565.05 33.3362 574.23 44.3889 580.615L299.111 726.245C310.175 732.636 322.725 736 335.5 736C348.275 736 360.825 732.636 371.889 726.245L626.611 580.615C637.664 574.23 646.844 565.05 653.231 553.995C659.618 542.94 662.987 530.399 663 517.63Z" stroke="white" stroke-width="16" stroke-linecap="round" stroke-linejoin="round"/>
</svg>
