<svg width="638" height="503" viewBox="0 0 638 503" fill="none" xmlns="http://www.w3.org/2000/svg">
<g clip-path="url(#clip0)">
<path opacity="0.1" d="M374.165 85.0045C333.795 83.6127 295.341 70.6906 258.627 56.55C221.913 42.4094 185.548 26.7409 146.145 19.25C120.802 14.4313 91.8165 13.7509 71.401 27.2234C51.7465 40.2135 45.3967 62.575 41.9848 83.3467C39.4149 98.9719 37.9054 115.414 44.9476 130.043C49.8316 140.2 58.508 148.736 64.5023 158.497C85.3793 192.346 70.6275 234.087 48.004 267.138C37.4002 282.645 25.0811 297.448 16.8974 313.939C8.71378 330.43 4.92136 349.352 12.0821 366.19C19.1866 382.891 36.109 395.411 54.4349 404.226C91.6668 422.134 135.523 427.256 178.319 430.157C273.023 436.584 368.227 433.8 463.181 431.016C498.323 429.983 533.615 428.938 568.183 423.55C587.382 420.556 607.199 415.812 621.14 404.344C638.83 389.788 643.214 365.138 631.363 346.89C611.472 316.277 556.513 308.675 542.591 275.816C534.943 257.735 542.803 237.594 553.918 220.819C577.77 184.842 617.747 153.277 619.855 112.154C621.302 83.9034 602.078 55.6222 572.362 42.2548C541.218 28.1946 498.017 29.9761 475.051 53.1664C451.385 77.062 409.806 86.2292 374.165 85.0045Z" fill="#0AACC9"/>
<path d="M271.614 427.126L58.1152 426.093L36.9014 376.749L111.914 371.349L98.8401 317.248L247.206 298.178L105.134 249.199L117.684 246.242L346.133 283.202L333.552 367.631L315.569 414.03L271.614 427.126Z" fill="#0AACC9"/>
<path d="M61.3899 405.426C61.3899 405.426 74.4887 403.348 82.348 412.527C82.348 412.527 76.5845 417.031 64.1843 410.795L61.3899 405.426Z" fill="#0AACC9"/>
<path d="M60.0176 405.222C60.0176 405.222 51.6593 415.422 55.7761 426.779C55.7761 426.779 62.5875 424.076 63.3298 410.307L60.0176 405.222Z" fill="#0AACC9"/>
<path d="M52.5076 388.452C52.5076 388.452 57.7471 378.92 78.7052 392.263C78.7052 392.263 75.9108 398.671 66.6543 398.152C57.3978 397.632 54.9527 393.475 52.5076 388.452Z" fill="#0AACC9"/>
<path d="M51.1539 387.766C51.1539 387.766 40.2819 386.529 39.2278 411.21C39.2278 411.21 46.1203 412.626 51.0167 404.82C55.9132 397.014 53.9047 392.634 51.1539 387.766Z" fill="#0AACC9"/>
<path d="M44.823 368.077C44.823 368.077 50.9358 351.276 73.1165 363.227C73.1165 363.227 68.0516 378.642 47.0935 373.792L44.823 368.077Z" fill="#0AACC9"/>
<path d="M38.0115 342.962C38.0115 342.962 49.5384 325.989 69.9726 341.725C69.9726 341.725 62.8119 357.66 39.758 349L38.0115 342.962Z" fill="#0AACC9"/>
<path d="M35.5664 319.061C35.5664 319.061 49.0145 303.466 69.2491 319.061C69.2491 319.061 56.4996 332.744 35.5664 323.044V319.061Z" fill="#0AACC9"/>
<path d="M33.4707 295.846C33.4707 295.846 47.0935 279.565 66.4797 294.98C66.4797 294.98 51.1105 309.355 33.4707 299.656V295.846Z" fill="#0AACC9"/>
<path d="M34.6931 275.235C34.6931 275.235 49.0394 254.277 67.1782 268.48C67.1782 268.48 51.8089 286.493 34.6931 279.218V275.235Z" fill="#0AACC9"/>
<path d="M38.0115 251.16C38.0115 251.16 53.2061 230.376 70.8459 246.31C70.8459 246.31 52.8568 264.323 38.0115 254.97V251.16Z" fill="#0AACC9"/>
<path d="M43.0765 229.64C43.0765 229.64 61.0655 210.105 76.7591 217.887C76.7591 217.887 58.0153 238.634 42.2905 234.823L43.0765 229.64Z" fill="#0AACC9"/>
<path d="M49.3639 209.239C49.3639 209.239 70.1224 185.313 82.1983 193.304C82.1983 193.304 66.9039 211.862 47.8918 213.717L49.3639 209.239Z" fill="#0AACC9"/>
<path d="M58.4394 185.579C58.4394 185.579 76.6093 166.044 89.8828 170.894C89.8828 170.894 74.3388 191.158 56.0005 191.678L58.4394 185.579Z" fill="#0AACC9"/>
<path d="M66.6543 163.446C66.6543 163.446 86.7391 144.74 95.4717 148.031C95.4717 148.031 80.9756 168.815 65.781 167.603L66.6543 163.446Z" fill="#0AACC9"/>
<path d="M74.6882 143.008C74.6882 143.008 91.9787 120.659 101.416 122.391C101.416 122.391 90.9308 142.315 74.6882 145.278V143.008Z" fill="#0AACC9"/>
<path d="M83.4083 115.451C83.4083 115.451 98.6903 98.3224 106.949 98.3595C106.949 98.3595 94.8854 121.247 82.7783 121.036L83.4083 115.451Z" fill="#0AACC9"/>
<path d="M88.5731 97.1039L103.337 61.4245C103.337 61.4245 104.073 93.677 86.6956 103.723L88.5731 97.1039Z" fill="#0AACC9"/>
<path d="M94.5673 57.7563C94.5673 57.7563 97.0124 27.9595 95.4406 25.5347C95.4406 25.5347 105.994 50.3086 94.4675 70.9195L94.5673 57.7563Z" fill="#0AACC9"/>
<path d="M44.2491 367.681C44.2491 367.681 28.9422 358.272 19.0308 381.289C19.0308 381.289 32.6535 390.259 46.0518 373.551L44.2491 367.681Z" fill="#0AACC9"/>
<path d="M37.5187 342.004C37.5187 342.004 18.7438 333.511 9.63696 357.542C9.63696 357.542 24.1392 367.44 39.2278 348.078L37.5187 342.004Z" fill="#0AACC9"/>
<path d="M34.6932 320.49C34.6932 320.49 21.2451 304.895 1.0105 320.49C1.0105 320.49 13.76 334.172 34.6932 324.473V320.49Z" fill="#0AACC9"/>
<path d="M33.009 295.846C33.009 295.846 19.3863 279.565 0 294.98C0 294.98 15.3693 309.355 33.009 299.656V295.846Z" fill="#0AACC9"/>
<path d="M34.6931 275.829C34.6931 275.829 25.1372 252.354 4.36621 262.449C4.36621 262.449 15.5938 283.264 33.8448 279.726L34.6931 275.829Z" fill="#0AACC9"/>
<path d="M39.2153 251.042C39.2153 251.042 29.7155 227.159 8.65137 238.232C8.65137 238.232 21.5506 260.123 38.2797 254.729L39.2153 251.042Z" fill="#0AACC9"/>
<path d="M45.1036 229.757C45.1036 229.757 41.3611 203.573 23.896 201.228C23.896 201.228 27.6011 228.842 42.7521 234.477L45.1036 229.757Z" fill="#0AACC9"/>
<path d="M49.8067 209.288C49.8067 209.288 48.3471 177.741 33.9072 176.64C33.9072 176.64 34.3938 200.585 48.1787 213.755L49.8067 209.288Z" fill="#0AACC9"/>
<path d="M59.9365 184.694C59.9365 184.694 55.6326 158.46 41.8477 155.256C41.8477 155.256 43.5567 180.661 58.5705 191.133L59.9365 184.694Z" fill="#0AACC9"/>
<path d="M68.2886 163.662C68.2886 163.662 68.1452 136.334 59.7245 132.319C59.7245 132.319 54.5037 157.062 65.8497 167.151L68.2886 163.662Z" fill="#0AACC9"/>
<path d="M75.3307 142.699C75.3307 142.699 74.1518 114.56 65.4318 110.595C65.4318 110.595 62.4502 132.864 74.0271 144.542L75.3307 142.699Z" fill="#0AACC9"/>
<path d="M84.6247 117.696C84.6247 117.696 84.5748 94.8089 78.3497 89.4397C78.3497 89.4397 72.1621 114.511 81.3749 122.298L84.6247 117.696Z" fill="#0AACC9"/>
<path d="M87.8432 95.978L81.7866 57.8862C81.7866 57.8862 73.5593 89.0995 88.1302 102.857L87.8432 95.978Z" fill="#0AACC9"/>
<path d="M89.0221 58.1151C89.0221 58.1151 73.4782 32.5061 73.7963 29.6607C73.7963 29.6607 75.4493 56.5006 95.0039 69.868L89.0221 58.1151Z" fill="#0AACC9"/>
<path d="M90.8436 50.5499C90.8436 50.5499 76.1729 14.1777 69.5361 11.2333C69.5361 11.2333 90.4942 21.7985 92.0661 49.5107L90.8436 50.5499Z" fill="#0AACC9"/>
<path d="M82.7035 121.253L81.6992 120.95C94.0807 80.9095 97.1683 55.3809 90.4006 48.9787L91.1179 48.224C98.2973 54.9788 95.3844 80.2291 82.7035 121.253Z" fill="#444053"/>
<path d="M48.609 215.004L47.1245 214.478C48.4406 210.81 49.8565 207.086 51.3411 203.418C64.2653 171.475 75.2683 141.759 82.3229 118.946L83.6141 118.327C76.547 141.183 65.7373 172.038 52.8007 204.024C51.3224 207.625 49.9127 211.33 48.609 215.004Z" fill="#444053"/>
<path d="M79.8467 435.39C79.6471 435.173 59.581 412.762 45.5902 374.504C37.3924 352.105 32.8301 328.558 32.0734 304.741C31.1128 274.969 37.4128 241.727 48.2037 211.528L49.3763 212.889C25.1498 280.666 34.7743 338.744 47.5425 373.718C61.3836 411.63 81.2252 433.794 81.4186 434.017L79.8467 435.39Z" fill="#444053"/>
<path d="M393.42 387.809C393.42 387.809 379.28 404.925 390.507 430.8L277.608 479.358L266.773 481.61L261.783 459.96L265.12 432.637V417.705L393.42 387.809Z" fill="#D5D6DB"/>
<path d="M36.9014 376.749L193.164 348.499L400.219 381.209L271.614 427.126L36.9014 376.749Z" fill="#0AACC9"/>
<path d="M36.9014 376.749L193.164 348.499L400.219 381.209L271.614 427.126L36.9014 376.749Z" fill="#0AACC9"/>
<path d="M36.9012 376.743C36.9012 376.743 22.2866 404.201 39.128 429.563L270.852 479.358C270.852 479.358 256.469 457.485 271.595 427.126L36.9012 376.743Z" fill="#0AACC9"/>
<path opacity="0.1" d="M36.9012 376.743C36.9012 376.743 22.2866 404.201 39.128 429.563L270.852 479.358C270.852 479.358 256.469 457.485 271.595 427.126L36.9012 376.743Z" fill="black"/>
<path opacity="0.1" d="M43.8063 386.263C43.8063 386.263 35.4542 406.354 43.8063 419.356Z" fill="black"/>
<path d="M270.853 479.358L400.219 424.614C400.219 424.614 407.455 426.161 402.776 431.419C398.098 436.676 273.348 484.616 273.348 484.616L39.1282 429.563L270.853 479.358Z" fill="#0AACC9"/>
<path opacity="0.1" d="M270.853 479.358L400.219 424.614C400.219 424.614 407.455 426.161 402.776 431.419C398.098 436.676 273.348 484.616 273.348 484.616L39.1282 429.563L270.853 479.358Z" fill="black"/>
<path opacity="0.1" d="M260.249 432.656C260.249 432.656 247.774 447.502 260.249 469.77Z" fill="black"/>
<path opacity="0.1" d="M320.645 432.405L264.689 450.918L264.886 451.505L320.842 432.991L320.645 432.405Z" fill="black"/>
<path opacity="0.1" d="M331.853 430.562L264.671 455.897L264.893 456.475L332.074 431.14L331.853 430.562Z" fill="black"/>
<path opacity="0.1" d="M342.146 430.474L265.046 461.77L265.282 462.342L342.382 431.046L342.146 430.474Z" fill="black"/>
<path opacity="0.1" d="M353.339 427.794L265.946 466.944L266.203 467.507L353.596 428.357L353.339 427.794Z" fill="black"/>
<path opacity="0.1" d="M362.742 427.806L266.638 469.465L266.888 470.032L362.992 428.373L362.742 427.806Z" fill="black"/>
<path opacity="0.1" d="M383.311 424.342L268.087 473.695L268.334 474.263L383.558 424.91L383.311 424.342Z" fill="black"/>
<path opacity="0.3" d="M94.9541 379.768L204.735 356.88L271.614 369.561L181.656 398.325L94.9541 379.768Z" fill="white"/>
<path d="M400.219 381.209C400.219 381.209 405.895 383.479 402.564 386.986C399.233 390.494 271.595 427.126 271.595 427.126L400.219 381.209Z" fill="#0AACC9"/>
<path d="M455.352 328.315C455.352 328.315 441.218 345.424 452.446 371.305L339.546 419.864L328.712 422.128L323.722 400.477L327.109 373.161V358.21L455.352 328.315Z" fill="#D5D6DB"/>
<path d="M98.8398 317.248L255.096 289.004L462.158 321.714L333.552 367.631L98.8398 317.248Z" fill="#3A3768"/>
<path d="M98.815 317.248C98.815 317.248 84.1942 344.707 101.036 370.068L332.76 419.864C332.76 419.864 318.382 397.972 333.527 367.625L98.815 317.248Z" fill="#3A3768"/>
<path opacity="0.1" d="M98.815 317.248C98.815 317.248 84.1942 344.707 101.036 370.068L332.76 419.864C332.76 419.864 318.382 397.972 333.527 367.625L260.249 351.895L98.815 317.248Z" fill="black"/>
<path opacity="0.1" d="M105.739 326.768C105.739 326.768 97.3927 346.853 105.739 359.862Z" fill="black"/>
<path d="M332.785 419.864L462.158 365.12C462.158 365.12 469.387 366.666 464.709 371.924C460.031 377.182 335.28 425.121 335.28 425.121L101.061 370.068L332.785 419.864Z" fill="#3A3768"/>
<path opacity="0.1" d="M332.785 419.864L462.158 365.12C462.158 365.12 469.387 366.666 464.709 371.924C460.031 377.182 335.28 425.121 335.28 425.121L101.061 370.068L332.785 419.864Z" fill="black"/>
<path opacity="0.1" d="M322.181 373.161C322.181 373.161 309.706 388.007 322.181 410.276Z" fill="black"/>
<path opacity="0.1" d="M382.582 372.917L326.626 391.43L326.823 392.017L382.78 373.504L382.582 372.917Z" fill="black"/>
<path opacity="0.1" d="M393.798 371.071L326.616 396.406L326.838 396.984L394.02 371.65L393.798 371.071Z" fill="black"/>
<path opacity="0.1" d="M404.082 370.974L326.982 402.27L327.218 402.843L404.318 371.547L404.082 370.974Z" fill="black"/>
<path opacity="0.1" d="M415.282 368.295L327.889 407.445L328.146 408.009L415.539 368.859L415.282 368.295Z" fill="black"/>
<path opacity="0.1" d="M424.676 368.3L328.572 409.959L328.822 410.525L424.926 368.867L424.676 368.3Z" fill="black"/>
<path opacity="0.1" d="M445.25 364.836L330.026 414.189L330.273 414.757L445.497 365.404L445.25 364.836Z" fill="black"/>
<path opacity="0.45" d="M156.893 320.273L266.673 297.386L333.552 310.067L243.594 338.83L156.893 320.273Z" fill="white"/>
<path d="M462.158 321.714C462.158 321.714 467.828 323.985 464.503 327.486C461.178 330.987 333.552 367.625 333.552 367.625L462.158 321.714Z" fill="#3A3768"/>
<path d="M461.216 260.253C461.216 260.253 447.075 290.977 458.303 316.852L345.403 351.802L334.594 354.072L329.604 332.422L332.941 305.1V290.149L461.216 260.253Z" fill="#D5D6DB"/>
<path d="M104.722 249.193L260.985 220.942L468.046 253.653L339.434 299.569L104.722 249.193Z" fill="#0AACC9"/>
<path d="M104.722 249.187C104.722 249.187 90.0825 276.645 106.924 302.007L338.648 351.802C338.648 351.802 324.265 329.911 339.409 299.569L104.722 249.187Z" fill="#0AACC9"/>
<path opacity="0.1" d="M104.722 249.187C104.722 249.187 90.0825 276.645 106.924 302.007L338.648 351.802C338.648 351.802 324.265 329.911 339.409 299.569L104.722 249.187Z" fill="black"/>
<path opacity="0.1" d="M111.627 258.706C111.627 258.706 103.275 278.798 111.627 291.8Z" fill="black"/>
<path d="M338.673 351.802L468.04 310.667C468.04 310.667 475.275 312.213 470.597 317.471C465.919 322.729 341.168 357.06 341.168 357.06L106.949 302.007L338.673 351.802Z" fill="#0AACC9"/>
<path opacity="0.1" d="M338.673 351.802L468.04 310.667C468.04 310.667 475.275 312.213 470.597 317.471C465.919 322.729 341.168 357.06 341.168 357.06L106.949 302.007L338.673 351.802Z" fill="black"/>
<path opacity="0.1" d="M328.069 305.099C328.069 305.099 315.594 319.945 328.069 342.214Z" fill="black"/>
<path opacity="0.1" d="M388.472 304.854L332.516 323.367L332.713 323.954L388.67 305.441L388.472 304.854Z" fill="black"/>
<path opacity="0.1" d="M399.683 303.012L332.502 328.346L332.723 328.925L399.905 303.59L399.683 303.012Z" fill="black"/>
<path opacity="0.1" d="M409.962 302.917L332.862 334.213L333.098 334.786L410.198 303.49L409.962 302.917Z" fill="black"/>
<path opacity="0.1" d="M421.171 300.233L333.778 339.383L334.034 339.947L421.427 300.797L421.171 300.233Z" fill="black"/>
<path opacity="0.1" d="M430.568 300.244L334.464 341.902L334.713 342.469L430.818 300.811L430.568 300.244Z" fill="black"/>
<path opacity="0.1" d="M451.139 296.784L335.916 346.137L336.163 346.705L451.387 297.352L451.139 296.784Z" fill="black"/>
<path opacity="0.3" d="M162.775 252.211L272.555 229.324L339.434 242.005L249.476 270.769L162.775 252.211Z" fill="white"/>
<path d="M468.04 253.653C468.04 253.653 473.716 255.923 470.385 259.43C467.054 262.937 339.434 299.569 339.434 299.569L468.04 253.653Z" fill="#0AACC9"/>
<path d="M193.626 65.8782C193.626 65.8782 169.923 64.4617 172.692 80.9529C172.692 80.9529 172.137 83.8664 174.801 85.1901C174.801 85.1901 174.844 83.953 177.233 84.3798C178.086 84.525 178.953 84.5666 179.816 84.5035C180.978 84.4246 182.084 83.973 182.966 83.2169V83.2169C182.966 83.2169 189.634 80.4828 192.228 69.6701C192.228 69.6701 194.149 67.3133 194.1 66.7071L190.083 68.402C190.083 68.402 191.449 71.266 190.376 73.6475C190.376 73.6475 190.245 68.5072 189.471 68.6247C189.315 68.6247 187.394 69.6206 187.394 69.6206C187.394 69.6206 189.746 74.6125 187.968 78.2373C187.968 78.2373 188.642 72.0887 186.658 69.9794L183.839 71.6124C183.839 71.6124 186.59 76.7651 184.725 80.9715C184.725 80.9715 185.205 74.5197 183.246 72.0083L180.689 73.9877C180.689 73.9877 183.277 79.0662 181.699 82.555C181.699 82.555 181.494 75.0455 180.14 74.4764C180.14 74.4764 177.901 76.4311 177.564 77.2353C177.564 77.2353 179.335 80.9467 178.231 82.8705C178.231 82.8705 177.564 77.8662 176.984 77.8415C176.984 77.8415 174.757 81.157 174.526 83.4086C174.634 81.3095 175.294 79.275 176.441 77.5074C175.158 77.7482 173.974 78.3569 173.035 79.258C173.035 79.258 173.378 76.9136 176.996 76.7095C176.996 76.7095 178.836 74.1919 179.329 74.0434C179.329 74.0434 175.73 73.7403 173.553 74.6991C173.553 74.6991 175.474 72.4908 179.984 73.4619L182.479 71.4207C182.479 71.4207 177.751 70.8021 175.743 71.4887C175.743 71.4887 178.057 69.534 183.159 70.9567L185.91 69.3299C185.91 69.3299 181.874 68.4701 179.473 68.7793C179.473 68.7793 182.005 67.4247 186.714 68.8907L188.673 68.0185C188.673 68.0185 185.723 67.4432 184.856 67.3504C183.989 67.2576 183.945 67.0226 183.945 67.0226C185.817 66.7176 187.739 66.9317 189.496 67.6412C189.496 67.6412 193.707 66.138 193.626 65.8782Z" fill="#0AACC9"/>
<path opacity="0.1" d="M527.084 133.661C527.084 133.661 503.381 132.245 506.151 148.736C506.151 148.736 505.596 151.65 508.259 152.973C508.259 152.973 508.303 151.736 510.692 152.163C511.545 152.305 512.411 152.346 513.274 152.287C514.426 152.203 515.52 151.751 516.393 151V151C516.393 151 523.067 148.266 525.656 137.453C525.656 137.453 527.577 135.097 527.527 134.49L523.522 136.185C523.522 136.185 524.888 139.049 523.816 141.431C523.816 141.431 523.685 136.29 522.917 136.408C522.761 136.408 520.834 137.404 520.834 137.404C520.834 137.404 523.186 142.396 521.414 146.021C521.414 146.021 522.088 139.872 520.098 137.763L517.279 139.396C517.279 139.396 520.029 144.548 518.164 148.755C518.164 148.755 518.645 142.303 516.686 139.792L514.135 141.771C514.135 141.771 516.717 146.849 515.139 150.338C515.139 150.338 514.933 142.829 513.58 142.26C513.58 142.26 511.347 144.214 511.004 145.019C511.004 145.019 512.775 148.73 511.677 150.654C511.677 150.654 511.004 145.649 510.43 145.625C510.43 145.625 508.203 148.94 507.972 151.192C508.08 149.092 508.743 147.057 509.893 145.291C508.608 145.532 507.422 146.141 506.481 147.041C506.481 147.041 506.831 144.697 510.442 144.493C510.442 144.493 512.282 141.975 512.775 141.82C512.775 141.82 509.182 141.524 506.999 142.482C506.999 142.482 508.92 140.274 513.43 141.245L515.925 139.204C515.925 139.204 511.191 138.585 509.189 139.272C509.189 139.272 511.496 137.317 516.605 138.74L519.349 137.113C519.349 137.113 515.314 136.253 512.912 136.563C512.912 136.563 515.445 135.208 520.154 136.674L522.119 135.802C522.119 135.802 519.162 135.226 518.295 135.134C517.428 135.041 517.385 134.806 517.385 134.806C519.257 134.497 521.179 134.711 522.936 135.424C522.936 135.424 527.159 133.921 527.084 133.661Z" fill="#0AACC9"/>
<path opacity="0.1" d="M233.546 167.757C233.546 167.757 223.216 146.522 210.068 156.988C210.068 156.988 207.23 157.928 207.367 160.879C207.367 160.879 208.458 160.316 209.238 162.592C209.529 163.397 209.915 164.165 210.386 164.881C211.024 165.852 211.963 166.59 213.062 166.984C213.062 166.984 218.719 171.426 229.504 168.395C229.504 168.395 232.517 168.908 233.009 168.549L229.566 165.908C229.566 165.908 227.695 168.487 225.088 168.716C225.088 168.716 229.554 166.1 229.073 165.493C228.974 165.37 227.202 164.176 227.202 164.176C227.202 164.176 223.952 168.648 219.898 168.877C219.898 168.877 225.637 166.465 226.522 163.712L223.715 162.067C223.715 162.067 220.516 166.966 215.906 167.399C215.906 167.399 221.819 164.671 223.073 161.751L220.091 160.514C220.091 160.514 216.879 165.227 213.037 165.568C213.037 165.568 219.549 161.726 219.387 160.273C219.387 160.273 216.573 159.295 215.7 159.388C215.7 159.388 213.317 162.722 211.072 162.722C211.072 162.722 215.145 159.697 214.896 159.209C214.896 159.209 210.891 158.899 208.783 159.827C210.683 158.891 212.797 158.464 214.914 158.59C214.074 157.597 212.96 156.868 211.708 156.493C211.708 156.493 213.941 155.652 215.881 158.677C215.881 158.677 219 159.042 219.368 159.394C219.368 159.394 217.877 156.141 215.975 154.724C215.975 154.724 218.856 155.299 220.173 159.673L223.198 160.86C223.198 160.86 221.457 156.456 219.854 155.064C219.854 155.064 222.699 156.11 223.94 161.25L226.709 162.834C226.709 162.834 225.506 158.918 224.059 156.994C224.059 156.994 226.485 158.528 227.489 163.316L229.217 164.59C229.217 164.59 228.281 161.751 227.969 160.959C227.658 160.168 227.814 160.007 227.814 160.007C229 161.475 229.752 163.242 229.984 165.11C229.984 165.11 233.321 167.943 233.546 167.757Z" fill="#0AACC9"/>
<path opacity="0.1" d="M472.93 103.661C472.93 103.661 462.607 82.4251 449.452 92.8914C449.452 92.8914 446.62 93.8316 446.751 96.7822C446.751 96.7822 447.849 96.2255 448.622 98.4957C448.913 99.3036 449.3 100.074 449.776 100.791C450.412 101.759 451.349 102.495 452.446 102.888V102.888C452.446 102.888 458.11 107.329 468.888 104.304C468.888 104.304 471.901 104.811 472.4 104.453L468.975 101.805C468.975 101.805 467.104 104.391 464.503 104.62C464.503 104.62 468.963 101.997 468.483 101.391C468.383 101.267 466.611 100.073 466.611 100.073C466.611 100.073 463.368 104.545 459.307 104.774C459.307 104.774 465.052 102.362 465.938 99.6153L463.087 97.9822C463.087 97.9822 459.893 102.875 455.278 103.314C455.278 103.314 461.191 100.58 462.451 97.6606L459.463 96.4234C459.463 96.4234 456.251 101.143 452.415 101.477C452.415 101.477 458.92 97.6358 458.758 96.1884C458.758 96.1884 455.951 95.2048 455.078 95.3038C455.078 95.3038 452.695 98.6317 450.444 98.6317C450.444 98.6317 454.523 95.6069 454.273 95.1182C454.273 95.1182 450.269 94.809 448.154 95.7368C450.054 94.8001 452.168 94.3736 454.286 94.4997C453.449 93.5055 452.336 92.7765 451.086 92.4027C451.086 92.4027 453.319 91.5614 455.259 94.5863C455.259 94.5863 458.378 94.9574 458.746 95.31C458.746 95.31 457.255 92.0501 455.346 90.6336C455.346 90.6336 458.228 91.215 459.544 95.6131L462.576 96.8008C462.576 96.8008 460.835 92.3903 459.232 90.9985C459.232 90.9985 462.077 92.0439 463.312 97.1843L466.087 98.7678C466.087 98.7678 464.877 94.8584 463.43 92.9285C463.43 92.9285 465.863 94.4626 466.861 99.2503L468.589 100.525C468.589 100.525 467.659 97.6853 467.341 96.8936C467.023 96.1018 467.185 95.9471 467.185 95.9471C468.368 97.4171 469.118 99.1836 469.35 101.05C469.35 101.05 472.737 103.859 472.93 103.661Z" fill="#0AACC9"/>
<path opacity="0.1" d="M505.92 208.701C505.92 208.701 495.597 187.459 482.423 197.925C482.423 197.925 479.591 198.865 479.722 201.816C479.722 201.816 480.82 201.259 481.594 203.53C481.882 204.337 482.268 205.108 482.741 205.824C483.377 206.793 484.315 207.529 485.411 207.921C485.411 207.921 491.075 212.369 501.859 209.338C501.859 209.338 504.866 209.851 505.365 209.486L501.922 206.845C501.922 206.845 500.051 209.431 497.443 209.66C497.443 209.66 501.903 207.037 501.423 206.431C501.323 206.307 499.552 205.113 499.552 205.113C499.552 205.113 496.308 209.585 492.247 209.82C492.247 209.82 497.992 207.402 498.878 204.655L496.065 203.01C496.065 203.01 492.871 207.909 488.255 208.342C488.255 208.342 494.169 205.608 495.429 202.688L492.441 201.451C492.441 201.451 489.228 206.165 485.392 206.505C485.392 206.505 491.904 202.664 491.742 201.21C491.742 201.21 488.929 200.226 488.056 200.325C488.056 200.325 485.673 203.653 483.421 203.653C483.421 203.653 487.501 200.628 487.251 200.14C487.251 200.14 483.247 199.83 481.132 200.758C483.034 199.822 485.15 199.396 487.27 199.521C486.432 198.525 485.317 197.796 484.064 197.424C484.064 197.424 486.297 196.577 488.237 199.608C488.237 199.608 491.355 199.973 491.723 200.325C491.723 200.325 490.233 197.072 488.33 195.649C488.33 195.649 491.212 196.23 492.528 200.628L495.553 201.816C495.553 201.816 493.813 197.406 492.21 196.02C492.21 196.02 495.054 197.059 496.289 202.206L499.065 203.783C499.065 203.783 497.855 199.874 496.408 197.944C496.408 197.944 498.841 199.478 499.845 204.272L501.573 205.509C501.573 205.509 500.637 202.67 500.325 201.878C500.013 201.086 500.169 200.931 500.169 200.931C501.355 202.4 502.105 204.167 502.334 206.035C502.334 206.035 505.727 208.886 505.92 208.701Z" fill="#0AACC9"/>
<path opacity="0.1" d="M125.967 485.061C133.887 485.061 140.307 484.35 140.307 483.472C140.307 482.594 133.887 481.882 125.967 481.882C118.047 481.882 111.627 482.594 111.627 483.472C111.627 484.35 118.047 485.061 125.967 485.061Z" fill="#0AACC9"/>
<path opacity="0.1" d="M31.9612 458.042C39.881 458.042 46.3013 457.33 46.3013 456.452C46.3013 455.574 39.881 454.863 31.9612 454.863C24.0414 454.863 17.6211 455.574 17.6211 456.452C17.6211 457.33 24.0414 458.042 31.9612 458.042Z" fill="#0AACC9"/>
<path opacity="0.1" d="M197.624 503.006C205.544 503.006 211.964 502.294 211.964 501.416C211.964 500.538 205.544 499.827 197.624 499.827C189.704 499.827 183.284 500.538 183.284 501.416C183.284 502.294 189.704 503.006 197.624 503.006Z" fill="#0AACC9"/>
<path opacity="0.1" d="M564.827 463.918C572.747 463.918 579.168 463.207 579.168 462.329C579.168 461.451 572.747 460.739 564.827 460.739C556.908 460.739 550.487 461.451 550.487 462.329C550.487 463.207 556.908 463.918 564.827 463.918Z" fill="#0AACC9"/>
<path opacity="0.1" d="M445.497 456.205C453.417 456.205 459.837 455.493 459.837 454.615C459.837 453.737 453.417 453.025 445.497 453.025C437.577 453.025 431.157 453.737 431.157 454.615C431.157 455.493 437.577 456.205 445.497 456.205Z" fill="#0AACC9"/>
<path opacity="0.1" d="M368.301 493.827C377.668 493.827 385.261 492.533 385.261 490.938C385.261 489.342 377.668 488.049 368.301 488.049C358.935 488.049 351.342 489.342 351.342 490.938C351.342 492.533 358.935 493.827 368.301 493.827Z" fill="#0AACC9"/>
<path d="M375.868 461.902C375.868 461.902 352.252 474.001 364.453 488.253C364.453 488.253 365.601 491.346 368.919 491.13C368.919 491.13 368.258 489.93 370.79 488.971C371.691 488.625 372.548 488.175 373.342 487.628C374.414 486.893 375.215 485.831 375.624 484.604V484.604C375.624 484.604 380.452 478.195 376.71 466.337C376.71 466.337 377.196 462.984 376.772 462.44L373.903 466.343C373.903 466.343 376.866 468.317 377.209 471.218C377.209 471.218 374.09 466.35 373.466 466.888C373.329 466.999 372.044 469.022 372.044 469.022C372.044 469.022 377.184 472.48 377.564 476.97C377.564 476.97 374.67 470.68 371.545 469.783L369.755 472.95C369.755 472.95 375.369 476.339 375.992 481.437C375.992 481.437 372.73 474.972 369.399 473.667L368.083 477.014C368.083 477.014 373.497 480.428 373.996 484.672C373.996 484.672 369.468 477.577 367.84 477.799C367.84 477.799 366.817 480.942 366.954 481.913C366.954 481.913 370.778 484.449 370.847 486.942C370.847 486.942 367.316 482.519 366.773 482.81C366.773 482.81 366.549 487.257 367.634 489.571C367.634 489.571 365.763 486.268 366.069 482.81C364.975 483.769 364.188 485.025 363.804 486.422C363.804 486.422 362.788 483.979 366.137 481.727C366.137 481.727 366.455 478.269 366.842 477.843C366.842 477.843 363.218 479.599 361.677 481.752C361.677 481.752 362.245 478.542 367.16 476.946L368.408 473.556C368.408 473.556 363.492 475.622 361.977 477.441C361.977 477.441 363.068 474.255 368.794 472.727L370.491 469.634C370.491 469.634 366.125 471.094 363.991 472.727C363.991 472.727 365.644 469.987 371.015 468.725L372.393 466.776C372.393 466.776 369.225 467.896 368.339 468.298C367.453 468.7 367.279 468.502 367.279 468.502C368.898 467.144 370.865 466.258 372.961 465.941C372.961 465.941 376.086 462.112 375.868 461.902Z" fill="#0AACC9"/>
<path d="M445.959 233.383C441.879 222.391 419.424 221.358 409.681 224.16C402.758 226.158 388.162 228.409 380.365 229.541L379.86 229.065C380.87 228.768 380.895 228.038 380.77 226.956C380.698 225.529 380.719 224.099 380.833 222.675C385.611 224.147 389.865 220.665 389.865 220.665C395.478 218.19 393.969 207.6 395.042 204.706C395.846 202.541 396.713 189.786 397.1 183.427H397.181L397.225 181.292C397.281 180.371 397.306 179.833 397.306 179.833C397.306 179.833 397.855 164.282 398.928 161.133C399.926 158.238 400.737 143.652 400.861 141.339C400.861 141.141 400.861 141.036 400.861 141.036L400.78 139.687C400.836 138.704 400.861 137.609 400.855 136.458C400.855 131.169 400.3 124.507 400.231 123.431C400.231 123.276 400.231 123.091 400.231 122.868C400.275 120.61 399.988 109.303 390.289 105.028C386.715 103.445 382.417 101.558 378.257 99.7211C377.184 90.5353 374.732 81.3989 374.944 72.145C374.944 70.7533 375.069 69.3615 375.206 67.9759C375.206 68.3779 375.163 68.7862 375.157 69.213C375.157 70.1099 375.157 71.0131 375.157 71.91C375.525 60.3365 379.935 48.7011 379.523 37.375C379.485 38.4822 379.404 39.5957 379.298 40.7091C379.514 36.8782 379.109 33.0377 378.101 29.3335C377.726 28.0283 377.221 26.6798 376.142 25.8076C375.122 25.1052 373.952 24.6458 372.724 24.4653C369.772 23.7161 366.774 23.1623 363.748 22.8075C363.288 21.4119 362.606 20.0983 361.727 18.9167C355.402 10.3062 346.034 2.21521 334.956 0.359483C329.398 -0.568379 323.005 0.204838 319.225 4.14516C318.83 4.4913 318.459 4.86328 318.114 5.25859C316.081 7.66485 315.208 10.8258 313.124 13.2258C312.987 13.3867 312.831 13.5351 312.681 13.6898C308.602 17.3084 302.246 18.0631 297.711 21.3106C296.912 21.8936 296.163 22.5412 295.472 23.2467C293.645 25.0424 292.006 27.0176 290.582 29.1418C288.542 31.9872 286.446 34.9502 285.798 38.3461C284.494 45.1505 289.166 51.6022 290.033 58.4498C291.967 73.7719 274.869 87.3682 278.107 102.486C278.971 106.2 280.878 109.595 283.608 112.278C276.94 118.266 271.264 124.074 271.264 124.074V124.421H270.21L270.316 125.658H270.21L270.79 132.369L270.21 142.143C270.21 142.143 270.21 142.248 270.21 142.446V142.496V142.761C270.21 142.761 270.21 142.867 270.21 143.065H270.247C270.441 146.646 271.208 159.525 272.119 162.24C273.192 165.389 273.734 180.94 273.734 180.94C273.734 180.94 274.919 202.918 276.005 205.825C277.09 208.732 275.549 219.292 281.182 221.784C282.83 223.038 284.781 223.84 286.839 224.11C286.552 226.424 286.733 228.1 287.663 228.626C288.06 228.858 288.511 228.985 288.973 228.997C288.59 229.559 288.251 230.148 287.956 230.76C285.72 230.528 283.523 230.015 281.419 229.232C275.368 226.758 255.29 221.191 249.458 225.106C243.626 229.022 229.591 232.572 236.072 248.334C242.553 264.095 245.572 264.491 245.572 264.491C247.567 265.927 249.317 267.671 250.755 269.656C252.701 272.557 270.834 279.194 275.368 279.194C277.296 279.165 279.223 279.26 281.138 279.479C281.138 279.479 276.217 283.759 276.872 286.246C277.527 288.733 275.375 308.638 275.375 308.638C275.375 308.638 280.365 313.624 282.498 307.086L282.573 307.185C282.972 307.723 285.13 310.154 289.191 307.086C290.853 305.835 292.618 304.726 294.468 303.77L314.129 301.011C316.178 300.884 318.234 300.87 320.285 300.968C323.404 301.222 326.466 299.391 328.394 297.974C332.467 299.508 337.045 301.185 339.222 301.797C343.638 303.034 363.935 308.434 368.682 306.746C369.669 306.357 370.546 305.737 371.239 304.939L375.768 305.082L373.647 305.502C373.647 305.502 377.776 305.57 383.39 305.645L383.153 305.781L390.195 305.719C400.5 305.812 412.077 305.842 413.598 305.502C415.981 304.976 428.363 305.348 432.012 305.502H433.028C433.028 305.502 446.632 302.811 441.019 289.122C436.702 278.607 423.435 275.551 417.547 274.71C419.206 274.382 420.634 274.128 421.583 273.98C425.693 273.361 433.677 269.65 434.326 268.382C434.975 267.114 441.667 263.433 443.395 261.336C445.123 259.239 450.057 244.375 445.959 233.383ZM333.278 264.144L332.61 264.361L332.161 264.509L331.3 265.351C330.614 264.893 329.878 264.41 329.111 263.915C330.465 263.996 331.856 264.076 333.278 264.144Z" fill="url(#paint0_linear)"/>
<path d="M373.048 198.921C373.048 198.921 382.592 223.664 388.018 221.19C393.445 218.716 391.973 208.2 393.008 205.317C394.044 202.435 395.192 180.574 395.192 180.574C395.192 180.574 395.716 165.11 396.751 161.98C397.712 159.104 398.491 144.598 398.622 142.315C398.622 142.117 398.622 142.012 398.622 142.012L397.593 124.074L391.767 122.632L378.257 127.581L376.385 138.177L375.656 142.315L375.344 144.078L373.048 198.921Z" fill="#BE6F72"/>
<path opacity="0.1" d="M376.192 194.777C376.192 194.777 385.299 202.169 388.043 202.818C390.788 203.468 392.472 209.233 392.472 209.233" fill="black"/>
<path d="M298.416 200.004C298.416 200.004 288.873 224.747 283.446 222.272C278.019 219.798 279.492 209.282 278.456 206.4C277.421 203.517 276.273 181.657 276.273 181.657C276.273 181.657 275.749 166.192 274.714 163.062C273.753 160.186 272.973 145.68 272.842 143.398C272.842 143.2 272.842 143.095 272.842 143.095L273.878 125.156L279.704 123.715L293.214 128.663L295.085 139.26L295.815 143.398L296.127 145.161L298.416 200.004Z" fill="#BE6F72"/>
<path d="M360.561 67.5916H339.26V100.518H360.561V67.5916Z" fill="#3E373A"/>
<path opacity="0.1" d="M360.561 67.5916H339.26V100.518H360.561V67.5916Z" fill="black"/>
<path d="M294.674 224.648C294.674 224.648 287.394 232.584 290.095 234.025C292.796 235.467 310.267 262.48 310.267 262.48C310.267 262.48 367.653 269.488 378.475 258.972C389.297 248.457 389.079 229.671 389.079 229.671C389.079 229.671 380.384 231.526 379.436 230.518C378.487 229.51 373.279 224.648 373.279 224.648C373.279 224.648 299.664 220.219 294.674 224.648Z" fill="#4B4B5B"/>
<path opacity="0.02" d="M294.674 224.648C294.674 224.648 287.394 232.584 290.095 234.025C292.796 235.467 310.267 262.48 310.267 262.48C310.267 262.48 367.653 269.488 378.475 258.972C389.297 248.457 389.079 229.671 389.079 229.671C389.079 229.671 380.384 231.526 379.436 230.518C378.487 229.51 373.279 224.648 373.279 224.648C373.279 224.648 299.664 220.219 294.674 224.648Z" fill="black"/>
<path d="M397.98 124.333L379.267 139.179L373.61 139.588L371.533 139.736L336.646 142.272L300.468 139.649L295.085 139.26L288.224 138.765L273.878 125.156C273.878 125.156 284.032 114.368 292.927 107.088C296.433 104.211 299.745 101.885 302.159 100.97L302.57 100.828C304.089 100.24 305.444 99.3032 306.525 98.0935C313.548 90.9119 320.042 73.1897 320.042 73.1897C320.042 73.1897 351.024 57.3171 347.281 78.1383C343.539 98.9595 361.209 93.813 361.209 93.813L367.035 96.4481L369.337 97.4935L375.206 100.16L388.449 106.184C398.84 110.929 397.98 124.333 397.98 124.333Z" fill="#BE6F72"/>
<path opacity="0.1" d="M335.193 90.1449C350.581 90.1449 363.056 77.7737 363.056 62.5131C363.056 47.2526 350.581 34.8814 335.193 34.8814C319.804 34.8814 307.33 47.2526 307.33 62.5131C307.33 77.7737 319.804 90.1449 335.193 90.1449Z" fill="black"/>
<path opacity="0.1" d="M398.023 144.017H272.842C272.842 143.819 272.842 143.713 272.842 143.713L273.878 125.775C273.878 125.775 284.032 114.987 292.927 107.706L371.52 104.613L375.175 100.791L388.418 106.815C398.815 111.554 397.98 124.958 397.98 124.958C397.98 124.958 399.402 140.491 398.023 144.017Z" fill="black"/>
<path d="M398.023 143.398H272.842C272.842 143.2 272.842 143.095 272.842 143.095L273.878 125.156C273.878 125.156 284.032 114.368 292.927 107.088L371.52 103.995L375.175 100.172L388.418 106.197C398.815 110.935 397.98 124.34 397.98 124.34C397.98 124.34 399.402 139.872 398.023 143.398Z" fill="#E7C7CA"/>
<path opacity="0.1" d="M315.127 93.0954C315.127 93.0954 334.875 118.049 361.178 92.582C387.482 67.1153 364.091 149.386 364.091 149.386L307.33 156.066L315.127 93.0954Z" fill="black"/>
<path d="M315.127 94.3327C315.127 94.3327 334.875 119.286 361.178 93.8193C387.482 68.3525 364.091 150.623 364.091 150.623L307.33 157.304L315.127 94.3327Z" fill="#E7C7CA"/>
<path opacity="0.1" d="M369.306 98.7121L371.395 130.315L373.634 140.831L375.344 148.872C375.344 148.872 379.71 210.73 378.462 213.823C377.215 216.915 379.086 219.39 379.348 221.035C379.61 222.681 379.086 226.813 379.292 228.668C379.498 230.524 379.292 231.347 374.514 230.685C369.736 230.023 363.074 228.873 363.074 228.873C363.074 228.873 346.233 230.11 340.413 228.05C334.594 225.99 323.572 225.984 323.572 225.984C323.572 225.984 306.937 226.398 301.535 225.78C296.133 225.161 293.214 232.38 289.684 230.314C286.153 228.248 293.838 208.255 296.333 202.478C298.828 196.7 293.008 182.065 293.008 182.065L300.493 140.887L302.159 131.552V102.207L302.57 102.065C304.089 101.478 305.444 100.54 306.525 99.3307L308.396 128.861L367.029 130.927V97.6915" fill="black"/>
<path d="M369.306 97.4749L371.395 129.078L373.634 139.594L375.344 147.635C375.344 147.635 379.71 209.493 378.462 212.585C377.215 215.678 379.086 218.153 379.348 219.798C379.61 221.443 379.086 225.576 379.292 227.431C379.498 229.287 379.292 230.11 374.514 229.448C369.736 228.786 363.074 227.635 363.074 227.635C363.074 227.635 346.233 228.873 340.413 226.813C334.594 224.753 323.572 224.747 323.572 224.747C323.572 224.747 306.937 225.161 301.535 224.542C296.133 223.924 293.214 231.143 289.684 229.077C286.153 227.011 293.838 207.018 296.333 201.241C298.828 195.463 293.008 180.828 293.008 180.828L300.493 139.649L302.159 130.315V100.97L302.57 100.828C304.089 100.24 305.444 99.3032 306.525 98.0935L308.396 127.624L367.029 129.69V96.4543" fill="#E7C7CA"/>
<path opacity="0.1" d="M376.049 31.5225C375.693 30.2297 375.2 28.8874 374.177 28.0214C373.201 27.3258 372.072 26.8681 370.884 26.6853C368.039 25.9433 365.146 25.3936 362.226 25.0399C361.809 23.6663 361.178 22.366 360.355 21.1861C354.242 12.6251 345.198 4.55267 334.556 2.72788C328.986 1.76909 322.531 2.6289 318.963 6.98367C317.004 9.37755 316.162 12.5508 314.185 14.9014C310.374 19.4665 303.494 20.0294 298.691 23.5615C296.127 25.4172 294.268 28.108 292.453 30.7184C290.488 33.5453 288.467 36.4897 287.844 39.8671C286.596 46.6157 291.093 53.0489 291.923 59.8594C293.794 75.0949 277.327 88.6108 280.44 103.642C282.255 112.407 290.42 118.581 298.865 121.711C301.841 122.818 305.24 123.919 306.631 126.752C307.255 127.989 307.361 129.418 307.947 130.668C309.918 134.837 316.399 134.998 319.88 131.96C323.36 128.923 324.458 124.012 324.87 119.428C326.541 99.4111 318.457 79.6352 319.399 59.5687C319.68 53.5005 321.402 46.6157 326.884 43.8693C334.263 40.1578 343.139 46.3436 351.261 45.1621C355.104 54.4354 355.92 64.6699 353.593 74.4268C352.302 79.7651 350.069 84.9426 349.907 90.4479C349.664 98.8296 354.223 106.488 358.166 113.898C359.011 115.284 359.577 116.82 359.831 118.42C359.893 120.043 359.588 121.66 358.939 123.152C356.712 129.096 352.87 134.614 352.433 140.942C352.305 141.681 352.473 142.44 352.901 143.058C353.341 143.47 353.908 143.723 354.51 143.775C361.247 144.92 367.073 139 370.36 133.055C374.025 126.49 376.16 119.193 376.61 111.702C377.29 99.108 372.736 86.7179 373.017 74.1114C373.341 59.779 379.872 45.3477 376.049 31.5225Z" fill="black"/>
<path d="M376.672 30.904C376.317 29.6112 375.824 28.2689 374.801 27.4029C373.824 26.7073 372.696 26.2496 371.508 26.0667C368.663 25.3248 365.77 24.7751 362.85 24.4213C362.433 23.0478 361.801 21.7475 360.979 20.5676C354.866 12.0065 345.821 3.93414 335.18 2.10935C329.61 1.15056 323.154 2.01037 319.586 6.36514C317.628 8.75902 316.786 11.9323 314.808 14.2829C310.997 18.848 304.117 19.4109 299.314 22.9429C296.751 24.7987 294.892 27.4895 293.077 30.0998C291.112 32.9267 289.091 35.8711 288.467 39.2486C287.22 45.9972 291.717 52.4304 292.547 59.2409C294.418 74.4764 277.951 87.9922 281.063 103.024C282.879 111.789 291.043 117.962 299.489 121.092C302.464 122.199 305.864 123.3 307.255 126.134C307.879 127.371 307.985 128.8 308.571 130.049C310.542 134.218 317.023 134.379 320.503 131.342C323.984 128.305 325.082 123.393 325.493 118.81C327.165 98.7926 319.081 79.0167 320.023 58.9502C320.304 52.8819 322.025 45.9972 327.508 43.2507C334.887 39.5393 343.763 45.725 351.884 44.5436C355.727 53.8168 356.543 64.0514 354.217 73.8083C352.926 79.1466 350.693 84.3241 350.531 89.8294C350.288 98.2111 354.847 105.869 358.789 113.28C359.635 114.665 360.201 116.201 360.455 117.801C360.517 119.425 360.212 121.042 359.563 122.533C357.336 128.478 353.494 133.996 353.057 140.324C352.929 141.062 353.097 141.821 353.525 142.439C353.964 142.852 354.531 143.104 355.134 143.157C361.871 144.301 367.697 138.381 370.984 132.437C374.649 125.871 376.784 118.575 377.234 111.084C377.914 98.4895 373.36 86.0994 373.641 73.4928C373.965 59.1605 380.496 44.7291 376.672 30.904Z" fill="#3E373A"/>
<path d="M362.894 304.79L387.638 305.576L384.089 287.377L365.133 289.165L362.894 304.79Z" fill="#C3C7D9"/>
<path d="M439.565 261.657C437.9 263.717 431.457 267.428 430.833 268.665C430.209 269.903 422.518 273.614 418.564 274.233C414.609 274.851 402.14 277.536 399.851 278.977C398.21 280.016 385.043 283.307 376.392 285.132C374.048 285.682 371.677 286.105 369.287 286.4C365.545 286.604 324.589 272.791 324.589 272.791L332.486 264.75L332.922 264.601C335.155 263.853 345.472 260.395 351.198 258.75C357.648 256.894 365.133 249.267 365.133 249.267C365.133 249.267 376.148 245.556 377.608 245.141C379.068 244.727 373.865 230.71 373.865 230.71C373.865 230.71 397.774 227.419 407.13 224.629C416.486 221.839 438.112 222.872 442.06 233.803C446.009 244.733 441.256 259.597 439.565 261.657Z" fill="#4B4B5B"/>
<path d="M330.614 296.501C330.614 296.501 325.836 301.45 321.052 301.042C316.268 300.633 299.539 302.279 299.539 302.279C296.507 303.478 293.668 305.11 291.112 307.122C287.201 310.178 285.124 307.741 284.737 307.221L284.669 307.122C282.585 313.623 277.807 308.669 277.807 308.669C277.807 308.669 279.884 288.874 279.248 286.4C278.612 283.926 283.359 279.676 283.359 279.676L288.973 278.26L303.194 274.647L323.572 281.655L330.614 296.501Z" fill="#E7C7CA"/>
<path opacity="0.1" d="M288.948 278.26L284.737 307.221L284.669 307.122C282.585 313.623 277.807 308.669 277.807 308.669C277.807 308.669 279.884 288.874 279.248 286.4C278.612 283.926 283.359 279.676 283.359 279.676L288.948 278.26Z" fill="black"/>
<path opacity="0.1" d="M318.376 195.878C318.376 195.878 329.392 199.589 338.96 195.878Z" fill="black"/>
<path opacity="0.1" d="M355.982 202.892C355.982 202.892 360.555 205.156 364.091 202.892Z" fill="black"/>
<path opacity="0.1" d="M355.982 208.262C355.982 208.262 363.673 209.282 365.133 207.222Z" fill="black"/>
<path opacity="0.1" d="M353.487 219.798C353.487 219.798 367.933 217.942 371.52 215.468Z" fill="black"/>
<path opacity="0.1" d="M309.407 215.468C309.407 215.468 317.516 220.002 323.547 219.798Z" fill="black"/>
<path opacity="0.1" d="M376.385 285.132C374.042 285.682 371.67 286.105 369.281 286.4C365.538 286.604 324.583 272.791 324.583 272.791L332.479 264.75L332.916 264.601C334.163 265.474 335.186 266.222 335.916 266.791C339.353 269.476 342.671 265.969 343.919 265.969C345.166 265.969 355.976 274.833 355.976 274.833C355.976 274.833 365.956 277.103 367.622 279.163C369.287 281.223 375.107 280.814 376.142 282.256C376.454 282.701 376.491 283.796 376.385 285.132Z" fill="black"/>
<path d="M299.539 231.551C299.539 231.551 289.447 232.126 283.627 229.695C277.807 227.264 258.471 221.654 252.857 225.594C247.243 229.534 233.727 233.017 239.964 248.692C246.202 264.366 249.115 264.775 249.115 264.775C251.045 266.21 252.729 267.943 254.105 269.909C255.976 272.797 273.441 279.391 277.807 279.391C282.174 279.391 289.864 279.391 300.674 286.814C311.484 294.237 321.258 295.066 321.258 295.066C321.258 295.066 334.981 300.633 339.253 301.87C343.526 303.108 363.05 308.464 367.628 306.819C372.206 305.174 375.113 294.856 375.113 294.856C375.113 294.856 377.19 285.577 376.148 284.136C375.107 282.695 369.287 283.103 367.628 281.043C365.969 278.983 355.982 276.713 355.982 276.713C355.982 276.713 345.198 267.843 343.95 267.843C342.703 267.843 339.384 271.344 335.947 268.665C329.101 263.637 321.908 259.089 314.422 255.057C306.525 250.931 299.539 231.551 299.539 231.551Z" fill="#4B4B5B"/>
<path opacity="0.1" d="M279.248 237.533C281.045 237.169 282.903 237.221 284.676 237.685C286.449 238.15 288.09 239.014 289.472 240.211C294.462 244.337 311.253 252.62 311.253 252.62" fill="black"/>
<path opacity="0.1" d="M404.011 237.273C404.011 237.273 381.762 240.613 377.608 245.147Z" fill="black"/>
<path d="M429.585 305.576H428.606C425.088 305.452 413.168 305.081 410.873 305.576C408.172 306.194 372.406 305.576 372.406 305.576L379.398 304.135C379.398 304.135 376.803 295.116 378.45 294.367C378.45 294.367 369.094 288.256 376.148 284.13C383.203 280.004 390.806 281.742 390.806 281.742L408.515 275.791L411.914 274.647C411.914 274.647 431.874 275.68 437.276 289.289C442.678 302.897 429.585 305.576 429.585 305.576Z" fill="#E7C7CA"/>
<path opacity="0.1" d="M429.585 305.576H428.606C434.413 300.825 447.549 286.363 408.515 275.822L411.914 274.678C411.914 274.678 431.874 275.711 437.276 289.32C442.678 302.928 429.585 305.576 429.585 305.576Z" fill="black"/>
<path d="M392.89 289.542C393.493 289.542 393.981 289.058 393.981 288.46C393.981 287.862 393.493 287.377 392.89 287.377C392.287 287.377 391.798 287.862 391.798 288.46C391.798 289.058 392.287 289.542 392.89 289.542Z" fill="#4B4B5B"/>
<path d="M386.546 291.33C387.149 291.33 387.638 290.845 387.638 290.248C387.638 289.65 387.149 289.165 386.546 289.165C385.943 289.165 385.455 289.65 385.455 290.248C385.455 290.845 385.943 291.33 386.546 291.33Z" fill="#4B4B5B"/>
<g opacity="0.1">
<path opacity="0.1" d="M355.639 61.4916C355.881 54.6878 354.661 47.9108 352.059 41.6106C343.95 42.8106 335.068 36.6063 327.683 40.3178C322.219 43.0642 320.503 49.949 320.198 56.0172C320.123 57.6193 320.11 59.2214 320.141 60.8235C320.141 60.2544 320.141 59.6791 320.198 59.1101C320.484 53.0418 322.2 46.1571 327.683 43.4106C335.068 39.6992 343.938 45.8849 352.059 44.7035C354.262 50.0399 355.475 55.7273 355.639 61.4916V61.4916Z" fill="black"/>
<path opacity="0.1" d="M292.802 60.3604C292.909 59.0126 292.882 57.6576 292.721 56.315C292.06 50.8715 289.06 45.6693 288.517 40.3619C287.818 46.7642 291.929 52.9128 292.721 59.4078C292.802 59.7419 292.802 60.0388 292.802 60.3604Z" fill="black"/>
<path opacity="0.1" d="M325.668 115.871C325.281 120.461 324.19 125.366 320.678 128.41C317.166 131.453 310.698 131.286 308.745 127.117C308.122 125.88 308.028 124.439 307.423 123.201C306.038 120.368 302.633 119.267 299.657 118.16C291.205 115.024 283.053 108.881 281.238 100.092C281.076 99.2952 280.965 98.4894 280.907 97.6791C280.754 99.5204 280.865 101.374 281.238 103.184C283.053 111.95 291.218 118.117 299.657 121.253C302.633 122.36 306.038 123.461 307.423 126.294C308.047 127.531 308.153 128.96 308.745 130.21C310.71 134.379 317.191 134.54 320.678 131.503C324.165 128.466 325.25 123.554 325.668 118.964C325.858 116.548 325.922 114.125 325.861 111.702C325.861 113.106 325.78 114.492 325.668 115.871Z" fill="black"/>
<path opacity="0.1" d="M373.847 70.5607C373.847 71.4577 373.847 72.3484 373.847 73.2392C374.196 61.7337 378.45 50.1663 378.032 38.9021C377.708 49.3189 374.084 59.9707 373.847 70.5607Z" fill="black"/>
<path opacity="0.1" d="M360.461 117.102C360.614 116.368 360.663 115.617 360.604 114.869C360.353 113.268 359.787 111.732 358.939 110.347C355.334 103.543 351.223 96.5779 350.736 89.0251C350.736 89.3468 350.693 89.6437 350.687 89.9901C350.437 98.3656 354.997 106.03 358.939 113.44C359.609 114.588 360.121 115.82 360.461 117.102V117.102Z" fill="black"/>
<path opacity="0.1" d="M377.433 108.152C376.967 115.646 374.817 122.942 371.139 129.505C367.846 135.449 362.026 141.369 355.284 140.225C354.679 140.173 354.111 139.918 353.674 139.501C353.548 139.359 353.448 139.196 353.381 139.018C353.306 139.501 353.244 139.99 353.206 140.484C353.077 141.221 353.245 141.979 353.674 142.594C354.111 143.01 354.679 143.266 355.284 143.317C362.026 144.462 367.846 138.542 371.139 132.598C374.817 126.034 376.967 118.739 377.433 111.244C377.508 109.797 377.514 108.356 377.47 106.914C377.458 107.329 377.458 107.737 377.433 108.152Z" fill="black"/>
</g>
<path opacity="0.1" d="M378.45 294.367C378.45 294.367 394.237 300.936 404.648 286.4" stroke="black" stroke-miterlimit="10"/>
<path opacity="0.1" d="M381.556 305.848C381.556 305.848 394.449 297.534 410.873 305.576" stroke="black" stroke-miterlimit="10"/>
<path opacity="0.1" d="M295.254 303.961C295.254 303.961 300.668 291.85 315.126 301.085" stroke="black" stroke-miterlimit="10"/>
<path opacity="0.1" d="M277.701 124.847L288.742 114.95C288.742 114.95 331.55 112.166 333.321 126.597C333.321 126.597 348.497 109.488 380.415 113.298L393.919 123.962L356.594 140.206L320.322 152.683L293.607 140.825L277.701 124.847Z" fill="black"/>
<path d="M277.701 125.465L288.742 115.568C288.742 115.568 331.55 112.785 333.321 127.216C333.321 127.216 348.497 110.106 380.415 113.917L393.919 124.581L356.594 140.825L320.322 153.301L293.607 141.443L277.701 125.465Z" fill="#D5D6DB"/>
<path opacity="0.1" d="M272.817 126.703L277.701 184.645L329.473 187.224L327.227 129.53L327.184 128.558L272.817 126.703Z" fill="black"/>
<path d="M272.817 125.465L277.701 183.407L329.473 185.987L327.227 128.292L327.184 127.321L272.817 125.465Z" fill="#0AACC9"/>
<path opacity="0.1" d="M396.289 125.465L342.884 133.408V191.61L395.073 184.131L396.289 125.465Z" fill="black"/>
<path d="M396.289 124.228L342.884 132.171V190.372L395.073 182.894L396.289 124.228Z" fill="#0AACC9"/>
<path opacity="0.3" d="M383.696 138.431L354.847 141.61L355.477 151.359L383.677 148.303L383.696 138.431Z" fill="white"/>
<path d="M280.508 214.435L283.446 222.272C283.446 222.272 287.812 225.984 292.59 224.128C297.368 222.272 301.535 221.351 303.612 219.544C305.689 217.738 308.602 208.664 308.602 208.664C308.602 208.664 311.515 198.766 314.422 196.292C317.328 193.818 325.026 159.728 314.422 163.062C303.818 166.396 295.709 197.325 295.709 197.325C295.709 197.325 293.838 199.589 291.137 199.8C288.436 200.01 283.028 199.385 281.987 201.655C280.945 203.925 277.389 209.901 280.508 214.435Z" fill="#BE6F72"/>
<path opacity="0.1" d="M342.883 133.402C340.149 134.013 337.309 133.981 334.589 133.309C331.869 132.636 329.346 131.342 327.221 129.53L329.473 187.218C329.473 187.218 334.775 192.909 342.883 191.61V133.402Z" fill="black"/>
<path d="M342.883 132.165C340.149 132.776 337.309 132.744 334.589 132.071C331.869 131.399 329.346 130.105 327.221 128.292L329.473 185.981C329.473 185.981 334.775 191.671 342.883 190.372V132.165Z" fill="#0AACC9"/>
<path opacity="0.1" d="M342.883 132.165C340.149 132.776 337.309 132.744 334.589 132.071C331.869 131.399 329.346 130.105 327.221 128.292L329.473 185.981C329.473 185.981 334.775 191.671 342.883 190.372V132.165Z" fill="black"/>
<path opacity="0.1" d="M344.131 125.663C344.131 125.663 365.856 119.076 371.52 120.003Z" fill="black"/>
<path opacity="0.1" d="M319.83 122.787C319.83 122.787 298.772 117.838 295.254 119.243Z" fill="black"/>
<path opacity="0.1" d="M357.829 126.486C357.829 126.486 372.356 121.203 377.608 123.715Z" fill="black"/>
<path opacity="0.1" d="M350.512 259.003C352.763 257.327 355.159 255.851 357.673 254.593C361.415 252.805 368.276 248.166 368.276 248.166" fill="black"/>
<path opacity="0.1" d="M295.254 195.878C295.254 195.878 286.141 203.27 283.402 203.919C280.664 204.569 278.974 210.334 278.974 210.334" fill="black"/>
<path d="M390.931 213.334L388.025 221.19C388.025 221.19 383.658 224.901 378.874 223.046C374.09 221.19 369.936 220.268 367.852 218.462C365.769 216.656 362.862 207.581 362.862 207.581C362.862 207.581 359.956 197.684 357.043 195.21C354.13 192.735 346.439 158.646 357.043 161.98C367.647 165.314 375.755 196.243 375.755 196.243C375.755 196.243 377.627 198.507 380.327 198.717C383.028 198.927 388.436 198.303 389.478 200.573C390.52 202.843 394.05 208.818 390.931 213.334Z" fill="#BE6F72"/>
<path opacity="0.1" d="M385.835 198.884C385.835 198.884 391.792 202.682 391.767 207.222Z" fill="black"/>
<path d="M335.292 88.7902C350.681 88.7902 363.156 76.4191 363.156 61.1585C363.156 45.8979 350.681 33.5268 335.292 33.5268C319.904 33.5268 307.429 45.8979 307.429 61.1585C307.429 76.4191 319.904 88.7902 335.292 88.7902Z" fill="#BE6F72"/>
<path d="M317.796 53.7418C321.177 53.216 324.14 51.2675 327.371 50.1479C334.6 47.6303 342.596 49.3561 349.913 51.6263C352.72 52.4984 355.571 53.482 358.515 53.482C361.459 53.482 364.584 52.2881 366.087 49.7705C367.472 47.4571 367.204 44.4508 366.037 42.0198C364.871 39.5888 362.918 37.6341 360.947 35.7907C354.46 29.7163 346.414 24.0378 337.513 24.6564C333.933 24.91 330.508 26.1781 327.215 27.5823C323.068 29.3545 319.031 31.3705 315.126 33.6195C312.126 35.3454 306.569 37.6527 304.841 40.8074C300.911 47.9148 311.683 54.6944 317.796 53.7418Z" fill="#3E373A"/>
<path opacity="0.1" d="M366.087 47.1725C364.584 49.6901 361.459 50.884 358.515 50.884C355.571 50.884 352.72 49.9376 349.907 49.0654C342.59 46.7952 334.6 45.0632 327.365 47.587C324.14 48.7066 321.171 50.6799 317.79 51.1747C312.862 51.9418 304.928 47.686 304.067 42.2734C303.101 48.5272 312.301 53.8841 317.79 53.0304C321.171 52.5047 324.14 50.5561 327.365 49.4427C334.6 46.9189 342.59 48.6509 349.907 50.9211C352.72 51.7933 355.564 52.7768 358.515 52.7397C361.465 52.7026 364.584 51.5521 366.087 49.0283C366.866 47.6553 367.173 46.0678 366.96 44.5065C366.863 45.4465 366.565 46.3553 366.087 47.1725Z" fill="black"/>
<path d="M592.204 382.409C592.204 382.409 595.903 387.203 590.495 394.446C585.087 401.69 580.633 407.801 582.43 412.317C582.43 412.317 590.588 398.869 597.225 398.677C603.862 398.486 599.496 390.494 592.204 382.409Z" fill="#0AACC9"/>
<path opacity="0.1" d="M592.204 382.409C592.526 382.872 592.78 383.378 592.959 383.912C599.433 391.459 602.889 398.504 596.657 398.677C590.857 398.844 583.902 409.131 582.236 411.723C582.29 411.933 582.354 412.139 582.43 412.342C582.43 412.342 590.588 398.894 597.225 398.702C603.862 398.51 599.496 390.494 592.204 382.409Z" fill="black"/>
<path d="M599.065 388.52C599.065 390.209 598.872 391.576 598.641 391.576C598.41 391.576 598.211 390.209 598.211 388.52C598.211 386.832 598.448 387.63 598.685 387.63C598.922 387.63 599.065 386.832 599.065 388.52Z" fill="#FFD037"/>
<path d="M601.429 390.537C599.939 391.341 598.635 391.83 598.523 391.626C598.41 391.422 599.527 390.599 601.018 389.77C602.508 388.941 601.922 389.547 602.034 389.77C602.147 389.993 602.926 389.727 601.429 390.537Z" fill="#FFD037"/>
<path d="M572.656 382.409C572.656 382.409 568.957 387.203 574.365 394.446C579.773 401.69 584.226 407.801 582.424 412.317C582.424 412.317 574.271 398.869 567.628 398.677C560.985 398.486 565.383 390.494 572.656 382.409Z" fill="#0AACC9"/>
<path opacity="0.1" d="M572.656 382.409C572.333 382.872 572.079 383.378 571.901 383.912C565.426 391.459 561.971 398.504 568.202 398.677C573.997 398.844 580.958 409.131 582.623 411.723C582.571 411.934 582.504 412.14 582.424 412.342C582.424 412.342 574.271 398.894 567.628 398.702C560.985 398.51 565.383 390.494 572.656 382.409Z" fill="black"/>
<path d="M565.782 388.52C565.782 390.209 565.969 391.576 566.206 391.576C566.443 391.576 566.636 390.209 566.636 388.52C566.636 386.832 566.393 387.63 566.162 387.63C565.931 387.63 565.782 386.832 565.782 388.52Z" fill="#FFD037"/>
<path d="M563.424 390.537C564.915 391.341 566.218 391.83 566.331 391.626C566.443 391.422 565.326 390.599 563.836 389.77C562.345 388.941 562.931 389.547 562.819 389.77C562.707 389.993 561.927 389.727 563.424 390.537Z" fill="#FFD037"/>
<path opacity="0.1" d="M582.43 449.011C603.788 449.011 621.103 446.377 621.103 443.128C621.103 439.879 603.788 437.245 582.43 437.245C561.071 437.245 543.757 439.879 543.757 443.128C543.757 446.377 561.071 449.011 582.43 449.011Z" fill="#0AACC9"/>
<path d="M602.334 405.853L602.147 407.35L601.885 409.465L601.779 410.35L601.517 412.465L601.404 413.35L601.149 415.459L598.186 439.522C597.924 441.668 594.387 443.345 590.114 443.345H574.739C570.466 443.345 566.936 441.668 566.668 439.522L563.705 415.459L563.443 413.35L563.337 412.465L563.075 410.35L562.962 409.465L562.707 407.35L562.52 405.853C562.376 404.616 564.285 403.614 566.705 403.614H598.155C600.569 403.614 602.483 404.634 602.334 405.853Z" fill="#65617D"/>
<path d="M602.147 407.35L601.891 409.465H562.969L562.707 407.35H602.147Z" fill="#9D9CB5"/>
<path d="M601.779 410.35L601.523 412.465H563.337L563.075 410.35H601.779Z" fill="#9D9CB5"/>
<path d="M601.411 413.35L601.149 415.466H563.705L563.449 413.35H601.411Z" fill="#9D9CB5"/>
</g>
<defs>
<linearGradient id="paint0_linear" x1="340.969" y1="310.476" x2="340.969" y2="0.000707646" gradientUnits="userSpaceOnUse">
<stop stop-color="#808080" stop-opacity="0.25"/>
<stop offset="0.54" stop-color="#808080" stop-opacity="0.12"/>
<stop offset="1" stop-color="#808080" stop-opacity="0.1"/>
</linearGradient>
<clipPath id="clip0">
<rect width="638" height="503" fill="white"/>
</clipPath>
</defs>
</svg>
