<svg width="671" height="744" viewBox="0 0 671 744" fill="none" xmlns="http://www.w3.org/2000/svg">
<path d="M663 517.63V226.37C662.987 213.601 659.618 201.06 653.231 190.005C646.844 178.95 637.664 169.77 626.611 163.385L371.889 17.7553C360.825 11.3645 348.275 8 335.5 8C322.725 8 310.175 11.3645 299.111 17.7553L44.3889 163.385C33.3362 169.77 24.1559 178.95 17.769 190.005C11.3821 201.06 8.01309 213.601 8 226.37V517.63C8.01309 530.399 11.3821 542.94 17.769 553.995C24.1559 565.05 33.3362 574.23 44.3889 580.615L299.111 726.245C310.175 732.636 322.725 736 335.5 736C348.275 736 360.825 732.636 371.889 726.245L626.611 580.615C637.664 574.23 646.844 565.05 653.231 553.995C659.618 542.94 662.987 530.399 663 517.63Z" stroke="white" stroke-width="16" stroke-linecap="round" stroke-linejoin="round"/>
<path d="M336.044 272.009C280.708 272.009 236.075 316.652 236.075 372C236.075 427.348 280.708 471.991 336.044 471.991C391.379 471.991 436.012 427.348 436.012 372C436.012 316.652 391.379 272.009 336.044 272.009ZM336.044 437.007C300.284 437.007 271.051 407.854 271.051 372C271.051 336.146 300.197 306.993 336.044 306.993C371.89 306.993 401.036 336.146 401.036 372C401.036 407.854 371.803 437.007 336.044 437.007V437.007ZM463.419 267.919C463.419 280.885 452.978 291.241 440.102 291.241C427.138 291.241 416.784 280.798 416.784 267.919C416.784 255.039 427.225 244.596 440.102 244.596C452.978 244.596 463.419 255.039 463.419 267.919ZM529.63 291.589C528.151 260.348 521.016 232.674 498.134 209.873C475.339 187.073 447.671 179.937 416.436 178.371C384.244 176.543 287.756 176.543 255.564 178.371C224.416 179.85 196.748 186.986 173.866 209.786C150.984 232.587 143.936 260.261 142.37 291.502C140.543 323.701 140.543 420.212 142.37 452.411C143.849 483.652 150.984 511.326 173.866 534.127C196.748 556.927 224.329 564.063 255.564 565.629C287.756 567.457 384.244 567.457 416.436 565.629C447.671 564.15 475.339 557.014 498.134 534.127C520.929 511.326 528.064 483.652 529.63 452.411C531.457 420.212 531.457 323.788 529.63 291.589V291.589ZM488.041 486.959C481.255 504.016 468.117 517.157 450.977 524.032C425.311 534.214 364.407 531.864 336.044 531.864C307.68 531.864 246.689 534.127 221.11 524.032C204.057 517.244 190.919 504.103 184.046 486.959C173.866 461.287 176.215 400.37 176.215 372C176.215 343.63 173.953 282.626 184.046 257.041C190.832 239.984 203.97 226.843 221.11 219.968C246.776 209.786 307.68 212.136 336.044 212.136C364.407 212.136 425.398 209.873 450.977 219.968C468.03 226.756 481.168 239.897 488.041 257.041C498.221 282.713 495.872 343.63 495.872 372C495.872 400.37 498.221 461.374 488.041 486.959Z" fill="white"/>
</svg>
