<svg width="115" height="115" viewBox="0 0 115 115" fill="none" xmlns="http://www.w3.org/2000/svg">
<path d="M4.98379 57.9825C6.22934 54.5042 6.9338 51.4746 6.55725 51.2157C6.1807 50.9569 4.86574 53.5667 3.62019 57.0451C2.37464 60.5234 1.67018 63.553 2.04673 63.8119C2.42328 64.0708 3.73825 61.4609 4.98379 57.9825Z" fill="#E0E0E0"/>
<path d="M68.1675 101.463C69.413 97.9844 70.2153 95.022 69.9595 94.8461C69.7036 94.6702 68.4865 97.3474 67.241 100.826C65.9954 104.304 65.1931 107.266 65.449 107.442C65.7048 107.618 66.9219 104.941 68.1675 101.463Z" fill="#E0E0E0"/>
<path d="M34.2143 83.8785L31.8668 81.1926L25.4053 92.0353L27.7528 94.7213L34.2143 83.8785Z" fill="#F55F44"/>
<path opacity="0.05" d="M28.816 95.5863L32.1505 96.6726L34.4732 82.9844L31.1387 81.8981L28.816 95.5863Z" fill="black"/>
<path d="M29.1868 95.7071L32.1504 96.6726L34.4731 82.9844L31.5095 82.0189L29.1868 95.7071Z" fill="#F55F44"/>
<path d="M6.67001 50.9009L1.93396 64.1268L65.3415 107.719L70.0775 94.4934L6.67001 50.9009Z" fill="url(#paint0_linear)"/>
<path d="M65.4543 107.404C64.2132 106.58 1.13771 63.1869 2.04678 63.8119C5.54766 56.408 6.5573 51.2157 6.5573 51.2157L69.9648 94.8083C69.9648 94.8083 67.7381 100.223 65.4543 107.404Z" fill="#F5F5F5"/>
<path opacity="0.05" d="M39.511 73.8714L34.2839 70.2777L29.7734 82.8739L35.0005 86.4675L39.511 73.8714Z" fill="black"/>
<path d="M39.2838 73.7151L34.5112 70.434L30.0006 83.0301L34.7733 86.3113L39.2838 73.7151Z" fill="#F55F44"/>
<path opacity="0.05" d="M38.3747 73.0902L35.1929 70.9027L30.6824 83.4989L33.8642 85.6863L38.3747 73.0902Z" fill="black"/>
<path d="M38.1474 72.9339L35.4202 71.059L30.9097 83.6551L33.6369 85.5301L38.1474 72.9339Z" fill="#F55F44"/>
<path opacity="0.5" d="M1.77692 50.7762C1.65739 50.7041 1.56118 50.5736 1.50659 50.4095C1.452 50.2455 1.44286 50.0593 1.48089 49.8865C1.48705 49.86 1.49093 49.8326 1.49245 49.8049C1.49592 49.7257 1.48091 49.6471 1.44962 49.5807C1.41833 49.5143 1.37244 49.4636 1.31874 49.4361C1.26503 49.4087 1.20638 49.4059 1.15146 49.4283C1.09654 49.4506 1.04827 49.4969 1.01381 49.5602C1.00196 49.5827 0.992069 49.607 0.984333 49.6327C0.932275 49.7983 0.838082 49.9317 0.719683 50.0073C0.601285 50.0829 0.466948 50.0956 0.342244 50.0429C0.323125 50.0344 0.303347 50.029 0.28332 50.0269C0.226185 50.0221 0.16945 50.0429 0.121518 50.0862C0.0735859 50.1296 0.0370061 50.1932 0.0171958 50.2676C-0.00261448 50.342 -0.00460069 50.4233 0.0115304 50.4994C0.0276615 50.5755 0.0610515 50.6423 0.106757 50.6901C0.122973 50.7065 0.140532 50.7202 0.159067 50.7309C0.278598 50.8031 0.374815 50.9336 0.429402 51.0976C0.483989 51.2617 0.493133 51.4478 0.455097 51.6206C0.448942 51.6471 0.445064 51.6745 0.443544 51.7023C0.440065 51.7814 0.455084 51.8601 0.486372 51.9265C0.517659 51.9929 0.563553 52.0436 0.617256 52.071C0.670959 52.0985 0.729615 52.1012 0.784535 52.0789C0.839455 52.0565 0.887718 52.0102 0.922177 51.9469C0.934027 51.9244 0.943923 51.9001 0.951658 51.8744C1.00372 51.7088 1.09791 51.5755 1.21631 51.4999C1.33471 51.4242 1.46904 51.4116 1.59375 51.4643C1.61287 51.4728 1.63264 51.4782 1.65267 51.4803C1.70981 51.4851 1.76654 51.4643 1.81448 51.4209C1.86241 51.3776 1.89899 51.314 1.9188 51.2396C1.93861 51.1652 1.9406 51.0839 1.92446 51.0078C1.90833 50.9317 1.87494 50.8648 1.82923 50.8171C1.81302 50.8007 1.79546 50.7869 1.77692 50.7762Z" fill="#4D8AF0"/>
<path opacity="0.5" d="M57.0073 113.681C56.8878 113.609 56.7916 113.479 56.737 113.315C56.6824 113.151 56.6733 112.965 56.7113 112.792C56.7175 112.765 56.7213 112.738 56.7229 112.71C56.7263 112.631 56.7113 112.552 56.68 112.486C56.6487 112.419 56.6028 112.369 56.5491 112.341C56.4954 112.314 56.4368 112.311 56.3819 112.334C56.3269 112.356 56.2787 112.402 56.2442 112.465C56.2324 112.488 56.2225 112.512 56.2147 112.538C56.1627 112.704 56.0685 112.837 55.9501 112.913C55.8317 112.988 55.6974 113.001 55.5726 112.948C55.5535 112.94 55.5338 112.934 55.5137 112.932C55.4566 112.927 55.3999 112.948 55.3519 112.991C55.304 113.035 55.2674 113.098 55.2476 113.173C55.2278 113.247 55.2258 113.328 55.2419 113.405C55.2581 113.481 55.2915 113.548 55.3372 113.595C55.3534 113.612 55.3709 113.625 55.3895 113.636C55.509 113.708 55.6052 113.839 55.6598 114.003C55.7144 114.167 55.7235 114.353 55.6855 114.526C55.6794 114.552 55.6755 114.58 55.674 114.607C55.6705 114.687 55.6855 114.765 55.7168 114.832C55.7481 114.898 55.794 114.949 55.8477 114.976C55.9014 115.004 55.96 115.006 56.0149 114.984C56.0699 114.962 56.1181 114.915 56.1526 114.852C56.1644 114.83 56.1743 114.805 56.1821 114.78C56.2341 114.614 56.3283 114.481 56.4467 114.405C56.5651 114.329 56.6995 114.317 56.8242 114.369C56.8433 114.378 56.8631 114.383 56.8831 114.385C56.9402 114.39 56.997 114.369 57.0449 114.326C57.0928 114.283 57.1294 114.219 57.1492 114.145C57.169 114.07 57.171 113.989 57.1549 113.913C57.1387 113.837 57.1054 113.77 57.0596 113.722C57.0434 113.706 57.0259 113.692 57.0073 113.681Z" fill="#4D8AF0"/>
<path d="M29.6242 71.6198L26.1542 78.8319C26.1542 78.8319 27.3108 86.2443 52.9019 86.044C78.493 85.8436 80.5172 78.8319 80.5172 78.8319L75.7459 69.2158L61.1431 55.3927L29.6242 71.6198Z" fill="url(#paint1_linear)"/>
<path opacity="0.15" d="M29.6242 71.6198L26.1542 78.8319C26.1542 78.8319 27.3108 86.2443 52.9019 86.044C78.493 85.8436 80.5172 78.8319 80.5172 78.8319L75.7459 69.2158L61.1431 55.3927L29.6242 71.6198Z" fill="black"/>
<path d="M103.433 44.8751L57.8899 72.7216L2.37024 44.8751L53.2632 12.8214L78.2456 28.7821L79.1406 29.3551L103.433 44.8751Z" fill="url(#paint2_linear)"/>
<path opacity="0.15" d="M103.433 44.8751L57.8899 72.7216L2.37024 44.8751L53.2632 12.8214L78.2456 28.7821L79.1406 29.3551L103.433 44.8751Z" fill="black"/>
<path d="M80.0833 51.5503L79.2158 51.6224L78.2457 28.7822L79.1406 29.3551L80.0833 51.5503Z" fill="#F5F5F5"/>
<path d="M30.2025 44.7749L26.1542 78.8319C26.1542 78.8319 55.2152 65.8101 80.5172 78.8319L76.758 42.7715C76.758 42.7715 42.7812 36.9618 30.2025 44.7749Z" fill="url(#paint3_linear)"/>
<path d="M80.011 58.4979C82.3267 58.4979 84.2039 56.704 84.2039 54.4912C84.2039 52.2783 82.3267 50.4845 80.011 50.4845C77.6953 50.4845 75.8181 52.2783 75.8181 54.4912C75.8181 56.704 77.6953 58.4979 80.011 58.4979Z" fill="#707070"/>
<path d="M36.627 61.837H35.847V64.58H36.51C37.5673 64.58 38.096 64.099 38.096 63.137C38.096 62.2703 37.6063 61.837 36.627 61.837ZM36.861 66.166H35.847V69H33.845V60.238H36.861C37.8317 60.238 38.616 60.511 39.214 61.057C39.8207 61.603 40.124 62.3267 40.124 63.228C40.124 64.1293 39.8077 64.8443 39.175 65.373C38.551 65.9017 37.7797 66.166 36.861 66.166ZM49.8672 69H44.4202V60.238H49.8152V61.837H46.4352V63.826H49.4512V65.412H46.4352V67.401H49.8672V69ZM62.2945 68.194C61.4625 68.8007 60.3792 69.104 59.0445 69.104C57.7098 69.104 56.6048 68.701 55.7295 67.895C54.8542 67.089 54.4165 65.997 54.4165 64.619C54.4165 63.241 54.8715 62.1403 55.7815 61.317C56.7002 60.4937 57.8615 60.082 59.2655 60.082C60.2535 60.082 61.1072 60.264 61.8265 60.628V62.63C60.9945 62.1533 60.1538 61.915 59.3045 61.915C58.4552 61.915 57.7878 62.162 57.3025 62.656C56.8172 63.1413 56.5745 63.7957 56.5745 64.619C56.5745 65.4337 56.8128 66.0837 57.2895 66.569C57.7662 67.0543 58.4162 67.297 59.2395 67.297C59.6122 67.297 59.9805 67.2407 60.3445 67.128V65.477H58.9275V63.774H62.2945V68.194ZM72.6172 66.452C72.6172 67.2407 72.3269 67.882 71.7462 68.376C71.1655 68.8613 70.3769 69.104 69.3802 69.104C68.3835 69.104 67.5602 68.922 66.9102 68.558V66.543C67.6989 67.115 68.5395 67.401 69.4322 67.401C69.7355 67.401 69.9869 67.323 70.1862 67.167C70.3855 67.0023 70.4852 66.79 70.4852 66.53C70.4852 66.3393 70.4375 66.1963 70.3422 66.101C70.2469 66.0057 70.1645 65.9363 70.0952 65.893C70.0345 65.841 69.9392 65.7847 69.8092 65.724C69.6879 65.6547 69.5839 65.5983 69.4972 65.555C69.2285 65.425 68.9642 65.3037 68.7042 65.191C68.1409 64.931 67.6859 64.6103 67.3392 64.229C67.0012 63.8477 66.8322 63.3103 66.8322 62.617C66.8322 61.9237 67.1095 61.3473 67.6642 60.888C68.2189 60.42 68.9599 60.186 69.8872 60.186C70.8145 60.186 71.5945 60.3333 72.2272 60.628V62.5C71.5252 62.0927 70.7972 61.889 70.0432 61.889C69.7052 61.889 69.4452 61.9583 69.2632 62.097C69.0899 62.2357 69.0032 62.4133 69.0032 62.63C69.0032 62.8467 69.1115 63.0417 69.3282 63.215C69.5449 63.3797 69.8265 63.54 70.1732 63.696C70.5285 63.852 70.7929 63.9777 70.9662 64.073C71.1482 64.1597 71.3519 64.2853 71.5772 64.45C71.8112 64.606 71.9932 64.7707 72.1232 64.944C72.4525 65.3773 72.6172 65.88 72.6172 66.452Z" fill="white"/>
<defs>
<linearGradient id="paint0_linear" x1="33.6377" y1="85.9231" x2="41.3322" y2="74.7311" gradientUnits="userSpaceOnUse">
<stop stop-color="#808080" stop-opacity="0.25"/>
<stop offset="0.53514" stop-color="#808080" stop-opacity="0.12"/>
<stop offset="1" stop-color="#808080" stop-opacity="0.1"/>
</linearGradient>
<linearGradient id="paint1_linear" x1="53.3357" y1="55.3927" x2="53.3357" y2="86.0479" gradientUnits="userSpaceOnUse">
<stop offset="1" stop-color="#0AACC9"/>
</linearGradient>
<linearGradient id="paint2_linear" x1="52.9018" y1="12.8214" x2="52.9018" y2="72.7216" gradientUnits="userSpaceOnUse">
<stop offset="1" stop-color="#0AACC9"/>
</linearGradient>
<linearGradient id="paint3_linear" x1="53.3357" y1="40.6944" x2="53.3357" y2="78.8319" gradientUnits="userSpaceOnUse">
<stop offset="1" stop-color="#0AACC9"/>
</linearGradient>
</defs>
</svg>
