<svg width="671" height="744" viewBox="0 0 671 744" fill="none" xmlns="http://www.w3.org/2000/svg">
<path d="M663 517.63V226.37C662.987 213.601 659.618 201.06 653.231 190.005C646.844 178.95 637.664 169.77 626.611 163.385L371.889 17.7553C360.825 11.3645 348.275 8 335.5 8C322.725 8 310.175 11.3645 299.111 17.7553L44.3889 163.385C33.3362 169.77 24.1559 178.95 17.769 190.005C11.3821 201.06 8.01309 213.601 8 226.37V517.63C8.01309 530.399 11.3821 542.94 17.769 553.995C24.1559 565.05 33.3362 574.23 44.3889 580.615L299.111 726.245C310.175 732.636 322.725 736 335.5 736C348.275 736 360.825 732.636 371.889 726.245L626.611 580.615C637.664 574.23 646.844 565.05 653.231 553.995C659.618 542.94 662.987 530.399 663 517.63Z" stroke="white" stroke-width="16" stroke-linecap="round" stroke-linejoin="round"/>
<path d="M529.736 271.939C530.046 276.281 530.046 280.624 530.046 284.966C530.046 417.402 429.206 570 244.899 570C188.117 570 135.37 553.561 91 525.028C99.0676 525.958 106.824 526.268 115.202 526.268C162.053 526.268 205.183 510.451 239.624 483.467C195.564 482.536 158.641 453.692 145.919 413.991C152.125 414.921 158.33 415.542 164.847 415.542C173.845 415.542 182.844 414.301 191.221 412.131C145.299 402.825 110.857 362.505 110.857 313.811V312.571C124.199 320.014 139.714 324.667 156.158 325.286C129.163 307.297 111.478 276.592 111.478 241.854C111.478 223.245 116.441 206.186 125.13 191.299C174.465 252.089 248.622 291.789 331.776 296.132C330.225 288.688 329.294 280.935 329.294 273.181C329.294 217.972 373.975 173 429.514 173C458.37 173 484.434 185.096 502.741 204.636C525.39 200.294 547.11 191.919 566.348 180.444C558.9 203.706 543.077 223.246 522.288 235.651C542.457 233.481 562.004 227.897 580 220.144C566.35 239.993 549.284 257.671 529.736 271.939Z" fill="white"/>
</svg>
